<?xml version="1.0" encoding="utf-8"?>
<!-- Generator: Adobe Illustrator 17.0.0, SVG Export Plug-In . SVG Version: 6.00 Build 0)  -->
<!DOCTYPE svg PUBLIC "-//W3C//DTD SVG 1.1//EN" "http://www.w3.org/Graphics/SVG/1.1/DTD/svg11.dtd">
<svg version="1.1" id="Layer_1" xmlns="http://www.w3.org/2000/svg" xmlns:xlink="http://www.w3.org/1999/xlink" x="0px" y="0px"
	 width="80px" height="118px" viewBox="0 0 80 118" enable-background="new 0 0 80 118" xml:space="preserve">
<g fill="#ffffff">
	<path d="M42.646,59.889c-0.117-1.345-1.244-2.401-2.619-2.401c-1.255,0-2.304,0.88-2.566,2.056l-0.001,0l-2.567,15.211
		c-0.083,0.37-0.128,0.755-0.128,1.15c0,2.906,2.356,5.262,5.262,5.262s5.262-2.356,5.262-5.262c0-0.477-0.065-0.938-0.183-1.377
		L42.646,59.889z"/>
	<polygon points="48.397,60.62 48.397,60.62 48.396,60.62 	"/>
	<path d="M62.698,66.411c-0.283-0.231-0.543-0.474-0.845-0.648L51.39,57.951c-0.95-0.624-1.973-0.607-2.718,0.14
		c-0.679,0.681-0.771,1.705-0.276,2.529l8.051,10.814c0.156,0.246,0.356,0.46,0.553,0.69c1.283,1.492,4.124,1.577,5.697-0.001
		C64.272,70.546,64.249,67.681,62.698,66.411z"/>
	<polygon points="59.35,57.327 59.349,57.327 59.349,57.327 	"/>
	<path d="M69.695,55.264l-9.787-0.376c-0.64-0.092-1.217,0.338-1.326,0.988c-0.099,0.594,0.221,1.174,0.768,1.45l0.002-0.006
		c0.007,0.003,0.01,0.001,0.017,0.004l9.491,2.92c1.363,0.317,2.903-0.385,2.903-1.915C71.763,56.391,71.256,55.46,69.695,55.264z"
		/>
	<polygon points="20.988,57.327 20.988,57.327 20.988,57.327 	"/>
	<path d="M20.986,57.32l0.002,0.006c0.546-0.276,0.867-0.856,0.768-1.45c-0.109-0.651-0.687-1.08-1.326-0.988l-9.787,0.376
		c-1.561,0.196-2.023,1.127-2.023,3.064c0,1.53,1.496,2.233,2.859,1.915l9.491-2.92C20.976,57.321,20.979,57.323,20.986,57.32z"/>
	<path d="M28.993,57.95l-10.458,7.799c-0.302,0.174-0.587,0.388-0.845,0.646c-1.573,1.573-1.573,4.125-0.001,5.698
		c1.572,1.574,4.12,1.575,5.692,0.001c0.214-0.214,0.395-0.443,0.551-0.688l8.051-10.794c0.494-0.822,0.403-1.844-0.276-2.523
		C30.965,57.345,29.784,57.285,28.993,57.95z"/>
	<path d="M55.977,23.285c0-10.031-11.897-15.786-15.786-15.786c1.976,14.068-16.718,19.678-18.417,31.572s7.893,15.786,7.893,15.786
		C32.353,45.008,41.57,41.703,47.7,37.482C54.387,32.878,55.977,28.557,55.977,23.285z"/>
	<path d="M55.977,44.333c0.827-2.567,0.807-8.057,0-10.524c-1.48,3.042-4.323,5.64-7.759,8.006
		c-1.412,0.972-3.266,1.882-4.741,2.762c-3.077,1.836-5.753,3.593-7.783,5.986c1.866,2.855,4.657,4.294,7.128,4.294
		C48.741,54.857,53.346,52.5,55.977,44.333z"/>
	<path d="M23.096,28.547c1.928-2.623,4.087-4.145,6.28-6.308c2.209-2.179,3.63-3.695,4.516-5.455
		c-1.754-3.508-4.579-4.375-6.856-4.023c0.384,4.988-4.928,7.657-5.262,11.29C21.572,26.245,22.185,27.89,23.096,28.547z"/>
	<path d="M14.92,98.609c0,1.242-0.528,2.353-1.348,3.171c0.819,0.819,1.348,1.93,1.348,3.172v1.48c0,2.457-2.008,4.439-4.439,4.439
		H7.309c-0.713,0-1.269-0.555-1.269-1.269V94.486c0-0.713,0.555-1.269,1.269-1.269h3.172c2.431,0,4.439,1.982,4.439,4.44V98.609z
		 M10.481,100.513c1.057,0,1.902-0.846,1.902-1.903v-0.951c0-1.058-0.846-1.903-1.902-1.903H8.578v4.758H10.481z M12.383,104.952
		c0-1.057-0.846-1.902-1.902-1.902H8.578v5.285h1.903c1.057,0,1.902-0.846,1.902-1.902V104.952z"/>
	<path d="M17.036,106.538v-8.986c0-2.457,1.982-4.439,4.44-4.439s4.44,1.982,4.44,4.439v8.986c0,2.458-1.982,4.439-4.44,4.439
		S17.036,108.996,17.036,106.538z M19.573,97.552v8.986c0,1.057,0.846,1.902,1.903,1.902s1.903-0.846,1.903-1.902v-8.986
		c0-1.057-0.846-1.902-1.903-1.902S19.573,96.495,19.573,97.552z"/>
	<path d="M35.88,110.265c-0.528-1.137-1.057-2.273-1.665-3.463c-0.978-2.008-2.246-4.545-3.33-6.871v9.778
		c0,0.714-0.555,1.269-1.269,1.269c-0.713,0-1.269-0.555-1.269-1.269V94.381c0-0.607,0.37-1.11,0.978-1.242s1.136,0.158,1.427,0.688
		c0.528,1.136,1.057,2.272,1.665,3.462l3.33,6.871v-9.778c0-0.714,0.555-1.269,1.269-1.269c0.713,0,1.269,0.555,1.269,1.269v15.328
		c0,0.608-0.423,1.11-0.978,1.242C36.7,111.083,36.118,110.793,35.88,110.265z"/>
	<path d="M41.036,109.604V94.486c0-0.713,0.555-1.269,1.269-1.269h5.285c0.714,0,1.269,0.556,1.269,1.269
		c0,0.714-0.555,1.269-1.269,1.269h-4.017v4.758h3.488c0.714,0,1.269,0.555,1.269,1.268c0,0.714-0.555,1.27-1.269,1.27h-3.488v6.554
		c0,0.714-0.556,1.269-1.269,1.269C41.591,110.872,41.036,110.317,41.036,109.604z"/>
	<path d="M50.551,109.709V94.381c0-0.714,0.556-1.269,1.269-1.269c0.714,0,1.269,0.555,1.269,1.269v15.328
		c0,0.714-0.555,1.269-1.269,1.269C51.106,110.978,50.551,110.423,50.551,109.709z"/>
	<path d="M64.717,99.138c0,1.718-0.898,3.198-2.378,3.938l2.299,6.184c0.291,0.661-0.079,1.401-0.74,1.639
		c-0.66,0.238-1.348-0.079-1.639-0.74l-2.457-6.58h-1.428v6.131c0,0.714-0.555,1.269-1.269,1.269c-0.713,0-1.269-0.555-1.269-1.269
		V94.486c0-0.713,0.556-1.269,1.269-1.269h3.172c2.458,0,4.439,1.982,4.439,4.44V99.138z M60.277,101.041
		c1.057,0,1.902-0.846,1.902-1.903v-1.479c0-1.058-0.846-1.903-1.902-1.903h-1.903v5.286H60.277z"/>
	<path d="M66.832,94.486c0-0.713,0.556-1.269,1.269-1.269h5.286c0.713,0,1.269,0.556,1.269,1.269c0,0.714-0.556,1.269-1.269,1.269
		h-4.018v4.758h3.489c0.713,0,1.268,0.555,1.268,1.268c0,0.714-0.555,1.27-1.268,1.27h-3.489v5.285h4.018
		c0.713,0,1.269,0.555,1.269,1.269s-0.556,1.269-1.269,1.269h-5.286c-0.713,0-1.269-0.555-1.269-1.269V94.486z"/>
</g>
</svg>
